<?xml version="1.0" standalone="no"?>
<!DOCTYPE svg PUBLIC "-//W3C//DTD SVG 20010904//EN"
 "http://www.w3.org/TR/2001/REC-SVG-20010904/DTD/svg10.dtd">
<svg version="1.0" xmlns="http://www.w3.org/2000/svg"
 width="934.000000pt" height="1280.000000pt" viewBox="0 0 934.000000 1280.000000"
 preserveAspectRatio="xMidYMid meet">
<metadata>
Created by potrace 1.15, written by Peter Selinger 2001-2017
</metadata>
<g transform="translate(0.000000,1280.000000) scale(0.100000,-0.100000)"
fill="#000000" stroke="none">
<path d="M834 12790 c-12 -4 -53 -35 -92 -68 -152 -127 -169 -170 -138 -359
23 -141 29 -368 12 -433 -8 -30 -105 -265 -216 -522 -271 -633 -348 -868 -385
-1184 -20 -173 -19 -249 4 -301 25 -53 42 -64 176 -107 121 -39 140 -42 758
-120 236 -30 431 -57 434 -60 8 -8 -123 -385 -176 -506 -66 -150 -141 -271
-344 -555 -239 -334 -249 -354 -251 -526 l-1 -109 -87 -87 c-121 -123 -219
-257 -288 -398 -149 -301 -179 -523 -146 -1075 41 -673 77 -1056 151 -1595
130 -949 194 -1592 245 -2455 5 -91 15 -363 21 -605 12 -415 11 -447 -7 -570
-14 -96 -19 -194 -20 -375 -1 -188 -5 -259 -18 -305 -8 -34 -18 -92 -22 -131
-5 -58 -3 -78 13 -116 46 -102 121 -118 723 -148 113 -6 293 -21 400 -35 387
-47 711 -56 925 -25 105 15 112 18 155 56 32 30 40 43 40 72 0 110 -96 183
-305 232 -187 44 -316 113 -431 232 -106 109 -175 226 -208 354 l-14 54 76 0
c43 0 334 -7 647 -16 511 -14 579 -14 658 -1 202 35 329 140 344 283 7 67 -1
78 -87 117 -53 24 -85 31 -170 37 -63 5 -167 23 -260 45 -85 21 -156 38 -158
40 -1 1 22 72 53 159 30 86 75 229 99 319 227 823 348 1261 406 1472 121 435
121 486 0 940 -38 143 -105 398 -150 568 -44 169 -107 405 -140 524 -69 249
-104 419 -121 583 -12 120 -7 297 11 391 27 135 15 169 -134 367 l-107 143
113 147 c165 214 178 232 266 394 160 291 291 454 525 650 125 105 1009 1051
1080 1155 53 78 71 147 65 253 -6 103 -38 186 -121 314 l-57 86 68 64 c105 99
133 121 197 160 91 54 94 58 117 141 26 97 76 172 150 227 32 25 75 70 99 107
24 36 69 84 106 113 88 69 118 124 117 208 -2 112 -174 513 -290 676 -236 334
-669 429 -1017 223 -86 -50 -207 -169 -265 -259 -41 -63 -65 -110 -205 -400
-80 -167 -120 -220 -189 -254 -70 -34 -238 -76 -314 -78 -111 -4 -120 3 -940
686 -730 609 -751 627 -807 711 -33 48 -56 89 -53 93 7 6 445 -24 453 -32 2
-2 -9 -36 -26 -74 -63 -143 -62 -226 5 -289 79 -74 295 -115 407 -77 76 26
177 151 177 219 0 43 -24 75 -142 191 -193 189 -175 184 -590 184 -346 0 -311
-8 -372 85 -42 64 -107 104 -246 150 -109 35 -148 41 -186 25z m651 -1359
c170 -220 311 -403 312 -408 3 -9 -429 -156 -572 -194 -70 -19 -96 -21 -214
-16 -73 4 -135 8 -137 9 -7 7 249 994 259 1000 7 4 19 8 27 7 8 0 154 -179
325 -398z"/>
<path d="M9045 1232 c-47 -23 -99 -75 -114 -115 -17 -46 -13 -133 8 -175 41
-80 106 -116 201 -110 79 4 123 29 164 92 89 137 -2 312 -168 323 -36 3 -63
-2 -91 -15z"/>
</g>
</svg>
